<svg xmlns="http://www.w3.org/2000/svg" viewBox="0 0 36 36">
  <path d="M12 9C12 5.68629 14.6863 3 18 3C21.3137 3 24 5.68629 24 9C24 12.3137 21.3137 15 18 15C14.6863 15 12 12.3137 12 9Z" fill="#F24E1E"/>
  <path d="M6 18C6 14.6863 8.68629 12 12 12C15.3137 12 18 14.6863 18 18C18 21.3137 15.3137 24 12 24C8.68629 24 6 21.3137 6 18Z" fill="#A259FF"/>
  <path d="M6 9C6 5.68629 8.68629 3 12 3C15.3137 3 18 5.68629 18 9C18 12.3137 15.3137 15 12 15C8.68629 15 6 12.3137 6 9Z" fill="#F24E1E"/>
  <path d="M12 27C12 23.6863 14.6863 21 18 21L24 21C24 24.3137 21.3137 27 18 27C14.6863 27 12 23.6863 12 27Z" fill="#0ACF83"/>
  <path d="M18 18C18 14.6863 20.6863 12 24 12C27.3137 12 30 14.6863 30 18C30 21.3137 27.3137 24 24 24L18 24C18 21.3137 18 18 18 18Z" fill="#1ABC9C"/>
</svg>
